# WaveFront *.obj file (generated by Autodesk ATF)

mtllib obj.mtl

g 본체1

v 9.453487 -17.923088 0.000000
v 12.453487 -17.923088 0.000000
v 12.453487 -17.923088 7.500000
v 9.453487 -17.923088 7.500000
v 9.453487 -0.923088 0.000000
v 9.453487 -9.423088 0.000000
v 9.453487 -9.423088 7.500000
v 9.453487 -0.923088 7.500000
v 6.453487 2.076912 0.000000
v 7.229944 1.974689 0.000000
v 7.953487 1.674988 0.000000
v 8.574807 1.198232 0.000000
v 9.051563 0.576912 0.000000
v 9.351265 -0.146631 0.000000
v 9.351265 -0.146631 7.500000
v 9.051563 0.576912 7.500000
v 8.574807 1.198232 7.500000
v 7.953487 1.674988 7.500000
v 7.229944 1.974689 7.500000
v 6.453487 2.076912 7.500000
v -10.546513 2.076912 0.000000
v -2.046513 2.076912 0.000000
v -2.046513 2.076912 7.500000
v -10.546513 2.076912 7.500000
v -10.546513 5.076912 0.000000
v -10.546513 5.076912 7.500000
v 9.453487 5.076912 0.000000
v -0.546513 5.076912 0.000000
v -0.546513 5.076912 7.500000
v 9.453487 5.076912 7.500000
v 12.453487 2.076912 0.000000
v 12.351265 2.853369 0.000000
v 12.051563 3.576912 0.000000
v 11.574807 4.198232 0.000000
v 10.953487 4.674988 0.000000
v 10.229944 4.974689 0.000000
v 10.229944 4.974689 7.500000
v 10.953487 4.674988 7.500000
v 11.574807 4.198232 7.500000
v 12.051563 3.576912 7.500000
v 12.351265 2.853369 7.500000
v 12.453487 2.076912 7.500000
v 12.453487 -7.923088 0.000000
v 12.453487 -7.923088 7.500000
vt 0.000000 0.000000 0.000000
vt 3.000000 0.000000 0.000000
vt 0.000000 7.500000 0.000000
vt 3.000000 7.500000 0.000000
vt 0.000000 0.000000 0.000000
vt 8.500000 0.000000 0.000000
vt 0.000000 7.500000 0.000000
vt 8.500000 7.500000 0.000000
vt 17.000000 0.000000 0.000000
vt 17.000000 7.500000 0.000000
vt 7.500000 4.712389 0.000000
vt 0.000000 4.712389 0.000000
vt 7.500000 3.926991 0.000000
vt 0.000000 3.926991 0.000000
vt 7.500000 3.141593 0.000000
vt 0.000000 3.141593 0.000000
vt 7.500000 2.356194 0.000000
vt -0.000000 2.356194 0.000000
vt 7.500000 1.570796 0.000000
vt 0.000000 1.570796 0.000000
vt 7.500000 0.785398 0.000000
vt 0.000000 0.785398 0.000000
vt 7.500000 -0.000000 0.000000
vt 0.000000 0.000000 0.000000
vt 0.000000 0.000000 0.000000
vt 8.500000 0.000000 0.000000
vt 0.000000 7.500000 0.000000
vt 8.500000 7.500000 0.000000
vt 17.000000 0.000000 0.000000
vt 17.000000 7.500000 0.000000
vt -0.000000 0.000000 0.000000
vt 3.000000 0.000000 0.000000
vt -0.000000 7.500000 0.000000
vt 3.000000 7.500000 0.000000
vt -0.000000 0.000000 0.000000
vt 10.000000 0.000000 0.000000
vt -0.000000 7.500000 0.000000
vt 10.000000 7.500000 0.000000
vt 20.000000 0.000000 0.000000
vt 20.000000 7.500000 0.000000
vt -7.500000 0.000000 0.000000
vt -0.000000 0.000000 0.000000
vt -7.500000 0.785398 0.000000
vt -0.000000 0.785398 0.000000
vt -7.500000 1.570796 0.000000
vt -0.000000 1.570796 0.000000
vt -7.500000 2.356194 0.000000
vt -0.000000 2.356194 0.000000
vt -7.500000 3.141593 0.000000
vt -0.000000 3.141593 0.000000
vt -7.500000 3.926991 0.000000
vt -0.000000 3.926991 0.000000
vt -7.500000 4.712389 0.000000
vt -0.000000 4.712389 0.000000
vt 0.000000 0.000000 0.000000
vt 10.000000 0.000000 0.000000
vt 0.000000 7.500000 0.000000
vt 10.000000 7.500000 0.000000
vt 20.000000 0.000000 0.000000
vt 20.000000 7.500000 0.000000
vt 8.500000 -11.500000 0.000000
vt 11.500000 -11.500000 0.000000
vt 8.500000 -3.000000 0.000000
vt 11.500000 -1.500000 0.000000
vt 8.500000 5.500000 0.000000
vt 11.500000 8.500000 0.000000
vt 8.397777 6.276457 0.000000
vt 8.098076 7.000000 0.000000
vt 7.621320 7.621320 0.000000
vt 11.397777 9.276457 0.000000
vt 11.098076 10.000000 0.000000
vt 10.621320 10.621320 0.000000
vt 10.000000 11.098076 0.000000
vt 9.276457 11.397777 0.000000
vt 8.500000 11.500000 0.000000
vt 7.000000 8.098076 0.000000
vt 6.276457 8.397777 0.000000
vt 5.500000 8.500000 0.000000
vt -1.500000 11.500000 0.000000
vt -3.000000 8.500000 0.000000
vt -11.500000 11.500000 0.000000
vt -11.500000 8.500000 0.000000
vt -11.500000 -1.500000 0.000000
vt -8.500000 5.500000 0.000000
vt -11.500000 8.500000 0.000000
vt -8.397777 6.276457 0.000000
vt -8.098076 7.000000 0.000000
vt -8.500000 -3.000000 0.000000
vt -11.500000 -11.500000 0.000000
vt -8.500000 -11.500000 0.000000
vt -7.621320 7.621320 0.000000
vt -11.397777 9.276457 0.000000
vt -11.098076 10.000000 0.000000
vt -10.621320 10.621320 0.000000
vt -10.000000 11.098076 0.000000
vt -9.276457 11.397777 0.000000
vt -8.500000 11.500000 0.000000
vt -7.000000 8.098076 0.000000
vt -6.276457 8.397777 0.000000
vt -5.500000 8.500000 0.000000
vt 1.500000 11.500000 0.000000
vt 3.000000 8.500000 0.000000
vt 11.500000 11.500000 0.000000
vt 11.500000 8.500000 0.000000
vn 0.000000 -1.000000 0.000000
vn 0.000000 -1.000000 0.000000
vn 0.000000 -1.000000 0.000000
vn 0.000000 -1.000000 0.000000
vn -1.000000 -0.000000 0.000000
vn -1.000000 -0.000000 0.000000
vn -1.000000 -0.000000 0.000000
vn -1.000000 -0.000000 0.000000
vn -1.000000 -0.000000 0.000000
vn -1.000000 -0.000000 0.000000
vn -0.000000 -1.000000 0.000000
vn -0.000000 -1.000000 0.000000
vn -0.258819 -0.965926 0.000000
vn -0.258819 -0.965926 0.000000
vn -0.500000 -0.866025 0.000000
vn -0.500000 -0.866025 0.000000
vn -0.707107 -0.707107 0.000000
vn -0.707107 -0.707107 0.000000
vn -0.866025 -0.500000 0.000000
vn -0.866025 -0.500000 0.000000
vn -0.965926 -0.258819 0.000000
vn -0.965926 -0.258819 0.000000
vn 0.000000 -1.000000 0.000000
vn 0.000000 -1.000000 0.000000
vn 0.000000 -1.000000 0.000000
vn 0.000000 -1.000000 0.000000
vn -1.000000 0.000000 0.000000
vn -1.000000 0.000000 0.000000
vn -1.000000 0.000000 0.000000
vn -1.000000 0.000000 0.000000
vn 0.000000 1.000000 0.000000
vn 0.000000 1.000000 0.000000
vn 0.000000 1.000000 0.000000
vn 0.000000 1.000000 0.000000
vn 0.000000 1.000000 0.000000
vn 0.000000 1.000000 0.000000
vn 1.000000 -0.000000 -0.000000
vn 1.000000 -0.000000 -0.000000
vn 0.965926 0.258819 -0.000000
vn 0.965926 0.258819 -0.000000
vn 0.866025 0.500000 -0.000000
vn 0.866025 0.500000 -0.000000
vn 0.707107 0.707107 -0.000000
vn 0.707107 0.707107 -0.000000
vn 0.500000 0.866025 -0.000000
vn 0.500000 0.866025 -0.000000
vn 0.258819 0.965926 -0.000000
vn 0.258819 0.965926 -0.000000
vn 1.000000 0.000000 -0.000000
vn 1.000000 0.000000 -0.000000
vn 1.000000 0.000000 -0.000000
vn 1.000000 0.000000 -0.000000
vn 0.000000 0.000000 1.000000
vn 0.000000 0.000000 1.000000
vn 0.000000 0.000000 1.000000
vn 0.000000 0.000000 1.000000
vn 0.000000 0.000000 1.000000
vn 0.000000 0.000000 1.000000
vn 0.000000 0.000000 1.000000
vn 0.000000 0.000000 1.000000
vn 0.000000 0.000000 1.000000
vn 0.000000 0.000000 1.000000
vn 0.000000 0.000000 1.000000
vn 0.000000 0.000000 1.000000
vn 0.000000 0.000000 1.000000
vn 0.000000 0.000000 1.000000
vn 0.000000 0.000000 1.000000
vn 0.000000 0.000000 1.000000
vn 0.000000 0.000000 1.000000
vn 0.000000 0.000000 1.000000
vn 0.000000 0.000000 1.000000
vn 0.000000 0.000000 1.000000
vn 0.000000 0.000000 1.000000
vn 0.000000 0.000000 1.000000
vn -0.000000 0.000000 -1.000000
vn -0.000000 0.000000 -1.000000
vn -0.000000 0.000000 -1.000000
vn -0.000000 0.000000 -1.000000
vn -0.000000 0.000000 -1.000000
vn -0.000000 0.000000 -1.000000
vn -0.000000 0.000000 -1.000000
vn -0.000000 0.000000 -1.000000
vn -0.000000 0.000000 -1.000000
vn -0.000000 0.000000 -1.000000
vn -0.000000 0.000000 -1.000000
vn -0.000000 0.000000 -1.000000
vn -0.000000 0.000000 -1.000000
vn -0.000000 0.000000 -1.000000
vn -0.000000 0.000000 -1.000000
vn -0.000000 0.000000 -1.000000
vn -0.000000 0.000000 -1.000000
vn -0.000000 0.000000 -1.000000
vn -0.000000 0.000000 -1.000000
vn -0.000000 0.000000 -1.000000
vn -0.000000 0.000000 -1.000000
vn -0.000000 0.000000 -1.000000
usemtl 페인트_-_에나멜_광택(흰색)
f 1/1/1 2/2/2 4/3/3
f 4/3/3 2/2/2 3/4/4
f 5/5/5 6/6/6 8/7/7
f 8/7/7 6/6/6 7/8/8
f 7/8/8 6/6/6 1/9/9
f 7/8/8 1/9/9 4/10/10
f 20/11/11 9/12/12 19/13/13
f 19/13/13 9/12/12 10/14/14
f 19/13/13 10/14/14 18/15/15
f 18/15/15 10/14/14 11/16/16
f 18/15/15 11/16/16 17/17/17
f 17/17/17 11/16/16 12/18/18
f 17/17/17 12/18/18 16/19/19
f 16/19/19 12/18/18 13/20/20
f 16/19/19 13/20/20 15/21/21
f 15/21/21 13/20/20 14/22/22
f 15/21/21 14/22/22 8/23/7
f 8/23/7 14/22/22 5/24/5
f 21/25/23 22/26/24 24/27/25
f 24/27/25 22/26/24 23/28/26
f 23/28/26 22/26/24 9/29/12
f 23/28/26 9/29/12 20/30/11
f 25/31/27 21/32/28 26/33/29
f 26/33/29 21/32/28 24/34/30
f 27/35/31 28/36/32 30/37/33
f 30/37/33 28/36/32 29/38/34
f 29/38/34 28/36/32 25/39/35
f 29/38/34 25/39/35 26/40/36
f 42/41/37 31/42/38 41/43/39
f 41/43/39 31/42/38 32/44/40
f 41/43/39 32/44/40 40/45/41
f 40/45/41 32/44/40 33/46/42
f 40/45/41 33/46/42 39/47/43
f 39/47/43 33/46/42 34/48/44
f 39/47/43 34/48/44 38/49/45
f 38/49/45 34/48/44 35/50/46
f 38/49/45 35/50/46 37/51/47
f 37/51/47 35/50/46 36/52/48
f 37/51/47 36/52/48 30/53/33
f 30/53/33 36/52/48 27/54/31
f 2/55/49 43/56/50 3/57/51
f 3/57/51 43/56/50 44/58/52
f 44/58/52 43/56/50 31/59/38
f 44/58/52 31/59/38 42/60/37
f 4/61/53 3/62/54 7/63/55
f 7/63/55 3/62/54 44/64/56
f 7/63/55 44/64/56 8/65/57
f 8/65/57 44/64/56 42/66/58
f 8/65/57 42/66/58 15/67/59
f 15/67/59 42/66/58 16/68/60
f 16/68/60 42/66/58 17/69/61
f 17/69/61 42/66/58 41/70/62
f 17/69/61 41/70/62 40/71/63
f 40/71/63 39/72/64 17/69/61
f 17/69/61 39/72/64 38/73/65
f 17/69/61 38/73/65 37/74/66
f 37/74/66 30/75/67 17/69/61
f 17/69/61 30/75/67 18/76/68
f 18/76/68 30/75/67 19/77/69
f 19/77/69 30/75/67 20/78/70
f 20/78/70 30/75/67 29/79/71
f 20/78/70 29/79/71 23/80/72
f 23/80/72 29/79/71 26/81/73
f 23/80/72 26/81/73 24/82/74
f 43/83/75 5/84/76 31/85/77
f 31/85/77 5/84/76 14/86/78
f 31/85/77 14/86/78 13/87/79
f 5/84/76 43/83/75 6/88/80
f 6/88/80 43/83/75 2/89/81
f 6/88/80 2/89/81 1/90/82
f 13/87/79 12/91/83 31/85/77
f 31/85/77 12/91/83 32/92/84
f 32/92/84 12/91/83 33/93/85
f 33/93/85 12/91/83 34/94/86
f 34/94/86 12/91/83 35/95/87
f 35/95/87 12/91/83 36/96/88
f 36/96/88 12/91/83 27/97/89
f 27/97/89 12/91/83 11/98/90
f 27/97/89 11/98/90 10/99/91
f 10/99/91 9/100/92 27/97/89
f 27/97/89 9/100/92 28/101/93
f 28/101/93 9/100/92 22/102/94
f 28/101/93 22/102/94 25/103/95
f 25/103/95 22/102/94 21/104/96
g 본체1:1

v 13.338286 -18.076912 7.500000
v 13.338286 -7.576912 7.500000
v 13.338286 2.923088 7.500000
v 13.338286 2.923088 8.500000
v 13.338286 -7.576912 8.500000
v 13.338286 -18.076912 8.500000
v 8.338286 -18.076912 7.500000
v 8.338286 -18.076912 8.500000
v 8.338286 -2.076912 7.500000
v 8.338286 -10.076912 7.500000
v 8.338286 -10.076912 8.500000
v 8.338286 -2.076912 8.500000
v 5.338286 0.923088 7.500000
v 6.114743 0.820866 7.500000
v 6.838286 0.521164 7.500000
v 7.459606 0.044409 7.500000
v 7.936362 -0.576912 7.500000
v 8.236064 -1.300455 7.500000
v 8.236064 -1.300455 8.500000
v 7.936362 -0.576912 8.500000
v 7.459606 0.044409 8.500000
v 6.838286 0.521164 8.500000
v 6.114743 0.820866 8.500000
v 5.338286 0.923088 8.500000
v -10.661714 0.923088 7.500000
v -2.661714 0.923088 7.500000
v -2.661714 0.923088 8.500000
v -10.661714 0.923088 8.500000
v -10.661714 5.923088 7.500000
v -10.661714 5.923088 8.500000
v 10.338286 5.923088 7.500000
v -0.161714 5.923088 7.500000
v -0.161714 5.923088 8.500000
v 10.338286 5.923088 8.500000
v 13.236064 3.699545 7.500000
v 12.936362 4.423088 7.500000
v 12.459606 5.044409 7.500000
v 11.838286 5.521164 7.500000
v 11.114743 5.820866 7.500000
v 11.114743 5.820866 8.500000
v 11.838286 5.521164 8.500000
v 12.459606 5.044409 8.500000
v 12.936362 4.423088 8.500000
v 13.236064 3.699545 8.500000
vt -0.000000 0.000000 0.000000
vt 10.500000 0.000000 0.000000
vt 0.000000 1.000000 0.000000
vt 10.500000 1.000000 0.000000
vt 21.000000 0.000000 0.000000
vt 21.000000 1.000000 0.000000
vt 0.000000 0.000000 0.000000
vt 5.000000 0.000000 0.000000
vt 0.000000 1.000000 0.000000
vt 5.000000 1.000000 0.000000
vt -0.000000 0.000000 0.000000
vt 8.000000 0.000000 0.000000
vt -0.000000 1.000000 0.000000
vt 8.000000 1.000000 0.000000
vt 16.000000 0.000000 0.000000
vt 16.000000 1.000000 0.000000
vt 1.000000 4.712389 0.000000
vt 0.000000 4.712389 0.000000
vt 1.000000 3.926991 0.000000
vt 0.000000 3.926991 0.000000
vt 1.000000 3.141593 0.000000
vt 0.000000 3.141593 0.000000
vt 1.000000 2.356194 0.000000
vt 0.000000 2.356194 0.000000
vt 1.000000 1.570796 0.000000
vt -0.000000 1.570796 0.000000
vt 1.000000 0.785398 0.000000
vt 0.000000 0.785398 0.000000
vt 1.000000 -0.000000 0.000000
vt 0.000000 -0.000000 0.000000
vt -0.000000 0.000000 0.000000
vt 8.000000 0.000000 0.000000
vt 0.000000 1.000000 0.000000
vt 8.000000 1.000000 0.000000
vt 16.000000 0.000000 0.000000
vt 16.000000 1.000000 0.000000
vt 0.000000 0.000000 0.000000
vt 5.000000 0.000000 0.000000
vt -0.000000 1.000000 0.000000
vt 5.000000 1.000000 0.000000
vt 0.000000 0.000000 0.000000
vt 10.500000 0.000000 0.000000
vt 0.000000 1.000000 0.000000
vt 10.500000 1.000000 0.000000
vt 21.000000 0.000000 0.000000
vt 21.000000 1.000000 0.000000
vt -1.000000 0.000000 0.000000
vt -0.000000 0.000000 0.000000
vt -1.000000 0.785398 0.000000
vt -0.000000 0.785398 0.000000
vt -1.000000 1.570796 0.000000
vt -0.000000 1.570796 0.000000
vt -1.000000 2.356194 0.000000
vt -0.000000 2.356194 0.000000
vt -1.000000 3.141593 0.000000
vt -0.000000 3.141593 0.000000
vt -1.000000 3.926991 0.000000
vt -0.000000 3.926991 0.000000
vt -1.000000 4.712389 0.000000
vt -0.000000 4.712389 0.000000
vt -9.776457 11.897777 0.000000
vt -10.500000 11.598076 0.000000
vt -9.000000 12.000000 0.000000
vt -11.121320 11.121320 0.000000
vt -11.598076 10.500000 0.000000
vt -11.897777 9.776457 0.000000
vt -12.000000 9.000000 0.000000
vt -6.121320 6.121320 0.000000
vt -6.598076 5.500000 0.000000
vt -6.897777 4.776457 0.000000
vt -7.000000 4.000000 0.000000
vt -12.000000 -1.500000 0.000000
vt -7.000000 -4.000000 0.000000
vt -12.000000 -12.000000 0.000000
vt -7.000000 -12.000000 0.000000
vt -5.500000 6.598076 0.000000
vt -4.776457 6.897777 0.000000
vt -4.000000 7.000000 0.000000
vt 1.500000 12.000000 0.000000
vt 4.000000 7.000000 0.000000
vt 12.000000 12.000000 0.000000
vt 12.000000 7.000000 0.000000
vt 11.897777 9.776457 0.000000
vt 9.776457 11.897777 0.000000
vt 12.000000 9.000000 0.000000
vt 9.000000 12.000000 0.000000
vt 6.121320 6.121320 0.000000
vt 5.500000 6.598076 0.000000
vt 4.776457 6.897777 0.000000
vt 4.000000 7.000000 0.000000
vt -1.500000 12.000000 0.000000
vt -4.000000 7.000000 0.000000
vt -12.000000 12.000000 0.000000
vt -12.000000 7.000000 0.000000
vt 11.598076 10.500000 0.000000
vt 11.121320 11.121320 0.000000
vt 10.500000 11.598076 0.000000
vt 6.598076 5.500000 0.000000
vt 6.897777 4.776457 0.000000
vt 7.000000 4.000000 0.000000
vt 12.000000 -1.500000 0.000000
vt 7.000000 -4.000000 0.000000
vt 12.000000 -12.000000 0.000000
vt 7.000000 -12.000000 0.000000
vn 1.000000 0.000000 -0.000000
vn 1.000000 0.000000 -0.000000
vn 1.000000 0.000000 -0.000000
vn 1.000000 0.000000 -0.000000
vn 1.000000 0.000000 -0.000000
vn 1.000000 0.000000 -0.000000
vn 0.000000 -1.000000 -0.000000
vn 0.000000 -1.000000 -0.000000
vn 0.000000 -1.000000 -0.000000
vn 0.000000 -1.000000 -0.000000
vn -1.000000 -0.000000 0.000000
vn -1.000000 -0.000000 0.000000
vn -1.000000 -0.000000 0.000000
vn -1.000000 -0.000000 0.000000
vn -1.000000 -0.000000 0.000000
vn -1.000000 -0.000000 0.000000
vn 0.000000 -1.000000 -0.000000
vn 0.000000 -1.000000 -0.000000
vn -0.258819 -0.965926 -0.000000
vn -0.258819 -0.965926 -0.000000
vn -0.500000 -0.866025 -0.000000
vn -0.500000 -0.866025 -0.000000
vn -0.707107 -0.707107 -0.000000
vn -0.707107 -0.707107 -0.000000
vn -0.866025 -0.500000 -0.000000
vn -0.866025 -0.500000 -0.000000
vn -0.965926 -0.258819 -0.000000
vn -0.965926 -0.258819 -0.000000
vn 0.000000 -1.000000 -0.000000
vn 0.000000 -1.000000 -0.000000
vn 0.000000 -1.000000 -0.000000
vn 0.000000 -1.000000 -0.000000
vn -1.000000 -0.000000 0.000000
vn -1.000000 -0.000000 0.000000
vn -1.000000 -0.000000 0.000000
vn -1.000000 -0.000000 0.000000
vn -0.000000 1.000000 0.000000
vn -0.000000 1.000000 0.000000
vn -0.000000 1.000000 0.000000
vn -0.000000 1.000000 0.000000
vn -0.000000 1.000000 0.000000
vn -0.000000 1.000000 0.000000
vn 0.965926 0.258819 0.000000
vn 0.965926 0.258819 0.000000
vn 0.866025 0.500000 0.000000
vn 0.866025 0.500000 0.000000
vn 0.707107 0.707107 0.000000
vn 0.707107 0.707107 0.000000
vn 0.500000 0.866025 0.000000
vn 0.500000 0.866025 0.000000
vn 0.258819 0.965926 0.000000
vn 0.258819 0.965926 0.000000
vn 0.000000 -0.000000 1.000000
vn 0.000000 -0.000000 1.000000
vn 0.000000 -0.000000 1.000000
vn 0.000000 -0.000000 1.000000
vn 0.000000 -0.000000 1.000000
vn 0.000000 -0.000000 1.000000
vn 0.000000 -0.000000 1.000000
vn 0.000000 -0.000000 1.000000
vn 0.000000 -0.000000 1.000000
vn 0.000000 -0.000000 1.000000
vn 0.000000 -0.000000 1.000000
vn 0.000000 -0.000000 1.000000
vn 0.000000 -0.000000 1.000000
vn 0.000000 -0.000000 1.000000
vn 0.000000 -0.000000 1.000000
vn 0.000000 -0.000000 1.000000
vn 0.000000 -0.000000 1.000000
vn 0.000000 -0.000000 1.000000
vn 0.000000 -0.000000 1.000000
vn 0.000000 -0.000000 1.000000
vn 0.000000 -0.000000 1.000000
vn 0.000000 -0.000000 1.000000
vn -0.000000 0.000000 -1.000000
vn -0.000000 0.000000 -1.000000
vn -0.000000 0.000000 -1.000000
vn -0.000000 0.000000 -1.000000
vn -0.000000 0.000000 -1.000000
vn -0.000000 0.000000 -1.000000
vn -0.000000 0.000000 -1.000000
vn -0.000000 0.000000 -1.000000
vn -0.000000 0.000000 -1.000000
vn -0.000000 0.000000 -1.000000
vn -0.000000 0.000000 -1.000000
vn -0.000000 0.000000 -1.000000
vn -0.000000 0.000000 -1.000000
vn -0.000000 0.000000 -1.000000
vn -0.000000 0.000000 -1.000000
vn -0.000000 0.000000 -1.000000
vn -0.000000 0.000000 -1.000000
vn -0.000000 0.000000 -1.000000
vn -0.000000 0.000000 -1.000000
vn -0.000000 0.000000 -1.000000
vn -0.000000 0.000000 -1.000000
vn -0.000000 0.000000 -1.000000
usemtl 페인트_-_에나멜_광택(빨간색)
f 45/105/97 46/106/98 50/107/99
f 50/107/99 46/106/98 49/108/100
f 49/108/100 46/106/98 47/109/101
f 49/108/100 47/109/101 48/110/102
f 51/111/103 45/112/104 52/113/105
f 52/113/105 45/112/104 50/114/106
f 53/115/107 54/116/108 56/117/109
f 56/117/109 54/116/108 55/118/110
f 55/118/110 54/116/108 51/119/111
f 55/118/110 51/119/111 52/120/112
f 68/121/113 57/122/114 67/123/115
f 67/123/115 57/122/114 58/124/116
f 67/123/115 58/124/116 66/125/117
f 66/125/117 58/124/116 59/126/118
f 66/125/117 59/126/118 65/127/119
f 65/127/119 59/126/118 60/128/120
f 65/127/119 60/128/120 64/129/121
f 64/129/121 60/128/120 61/130/122
f 64/129/121 61/130/122 63/131/123
f 63/131/123 61/130/122 62/132/124
f 63/131/123 62/132/124 56/133/109
f 56/133/109 62/132/124 53/134/107
f 69/135/125 70/136/126 72/137/127
f 72/137/127 70/136/126 71/138/128
f 71/138/128 70/136/126 57/139/114
f 71/138/128 57/139/114 68/140/113
f 73/141/129 69/142/130 74/143/131
f 74/143/131 69/142/130 72/144/132
f 75/145/133 76/146/134 78/147/135
f 78/147/135 76/146/134 77/148/136
f 77/148/136 76/146/134 73/149/137
f 77/148/136 73/149/137 74/150/138
f 48/151/102 47/152/101 88/153/139
f 88/153/139 47/152/101 79/154/140
f 88/153/139 79/154/140 87/155/141
f 87/155/141 79/154/140 80/156/142
f 87/155/141 80/156/142 86/157/143
f 86/157/143 80/156/142 81/158/144
f 86/157/143 81/158/144 85/159/145
f 85/159/145 81/158/144 82/160/146
f 85/159/145 82/160/146 84/161/147
f 84/161/147 82/160/146 83/162/148
f 84/161/147 83/162/148 78/163/135
f 78/163/135 83/162/148 75/164/133
f 88/165/149 87/166/150 48/167/151
f 48/167/151 87/166/150 86/168/152
f 48/167/151 86/168/152 85/169/153
f 85/169/153 84/170/154 48/167/151
f 48/167/151 84/170/154 78/171/155
f 48/167/151 78/171/155 65/172/156
f 65/172/156 78/171/155 66/173/157
f 66/173/157 78/171/155 67/174/158
f 67/174/158 78/171/155 68/175/159
f 68/175/159 78/171/155 77/176/160
f 68/175/159 77/176/160 71/177/161
f 71/177/161 77/176/160 74/178/162
f 71/177/161 74/178/162 72/179/163
f 65/172/156 64/180/164 48/167/151
f 48/167/151 64/180/164 63/181/165
f 48/167/151 63/181/165 56/182/166
f 48/167/151 56/182/166 49/183/167
f 49/183/167 56/182/166 55/184/168
f 49/183/167 55/184/168 50/185/169
f 50/185/169 55/184/168 52/186/170
f 83/187/171 79/188/172 75/189/173
f 75/189/173 79/188/172 47/190/174
f 75/189/173 47/190/174 60/191/175
f 60/191/175 47/190/174 61/192/176
f 61/192/176 47/190/174 62/193/177
f 62/193/177 47/190/174 53/194/178
f 53/194/178 47/190/174 46/195/179
f 53/194/178 46/195/179 54/196/180
f 54/196/180 46/195/179 45/197/181
f 54/196/180 45/197/181 51/198/182
f 83/187/171 82/199/183 79/188/172
f 79/188/172 82/199/183 81/200/184
f 79/188/172 81/200/184 80/201/185
f 60/191/175 59/202/186 75/189/173
f 75/189/173 59/202/186 58/203/187
f 75/189/173 58/203/187 57/204/188
f 75/189/173 57/204/188 76/205/189
f 76/205/189 57/204/188 70/206/190
f 76/205/189 70/206/190 73/207/191
f 73/207/191 70/206/190 69/208/192
# 88 vertices
# 208 texture params
# 192 normals
# 168 facets

# 2 groups
